# door_n — generated by tools/make-tiles.js
# 1 unit = 1 voxel, +Y up, cell frame x,z in [-2,2]
o door_n
vn 0 0 -1
vn 0 0 1
vn -1 0 0
vn 1 0 0
vn 0 -1 0
vn 0 1 0
v -2 1 1.5
v -1.5 1 1.5
v -2 4 1.5
v -1.5 4 1.5
v -2 1 2
v -1.5 1 2
v -2 4 2
v -1.5 4 2
v -0.5 1 1.5
v 2 1 1.5
v -0.5 4 1.5
v 2 4 1.5
v -0.5 1 2
v 2 1 2
v -0.5 4 2
v 2 4 2
v -1.5 3 1.5
v -0.5 3 1.5
v -1.5 4 1.5
v -0.5 4 1.5
v -1.5 3 2
v -0.5 3 2
v -1.5 4 2
v -0.5 4 2
v -1.65 1 1.4
v -1.5 1 1.4
v -1.65 3.15 1.4
v -1.5 3.15 1.4
v -1.65 1 2.1
v -1.5 1 2.1
v -1.65 3.15 2.1
v -1.5 3.15 2.1
v -0.5 1 1.4
v -0.35 1 1.4
v -0.5 3.15 1.4
v -0.35 3.15 1.4
v -0.5 1 2.1
v -0.35 1 2.1
v -0.5 3.15 2.1
v -0.35 3.15 2.1
v -1.65 3 1.4
v -0.35 3 1.4
v -1.65 3.15 1.4
v -0.35 3.15 1.4
v -1.65 3 2.1
v -0.35 3 2.1
v -1.65 3.15 2.1
v -0.35 3.15 2.1
f 1//1 3//1 4//1 2//1
f 5//2 6//2 8//2 7//2
f 1//3 5//3 7//3 3//3
f 2//4 4//4 8//4 6//4
f 1//5 2//5 6//5 5//5
f 3//6 7//6 8//6 4//6
f 9//1 11//1 12//1 10//1
f 13//2 14//2 16//2 15//2
f 9//3 13//3 15//3 11//3
f 10//4 12//4 16//4 14//4
f 9//5 10//5 14//5 13//5
f 11//6 15//6 16//6 12//6
f 17//1 19//1 20//1 18//1
f 21//2 22//2 24//2 23//2
f 17//3 21//3 23//3 19//3
f 18//4 20//4 24//4 22//4
f 17//5 18//5 22//5 21//5
f 19//6 23//6 24//6 20//6
f 25//1 27//1 28//1 26//1
f 29//2 30//2 32//2 31//2
f 25//3 29//3 31//3 27//3
f 26//4 28//4 32//4 30//4
f 25//5 26//5 30//5 29//5
f 27//6 31//6 32//6 28//6
f 33//1 35//1 36//1 34//1
f 37//2 38//2 40//2 39//2
f 33//3 37//3 39//3 35//3
f 34//4 36//4 40//4 38//4
f 33//5 34//5 38//5 37//5
f 35//6 39//6 40//6 36//6
f 41//1 43//1 44//1 42//1
f 45//2 46//2 48//2 47//2
f 41//3 45//3 47//3 43//3
f 42//4 44//4 48//4 46//4
f 41//5 42//5 46//5 45//5
f 43//6 47//6 48//6 44//6
