# stair_r1 — generated by tools/make-tiles.js
# 1 unit = 1 voxel, +Y up, cell frame x,z in [-2,2]
o stair_r1
vn 0 0 -1
vn 0 0 1
vn -1 0 0
vn 1 0 0
vn 0 -1 0
vn 0 1 0
v -1.5 1 -1.5
v -0.5 1 -1.5
v -1.5 2 -1.5
v -0.5 2 -1.5
v -1.5 1 -0.5
v -0.5 1 -0.5
v -1.5 2 -0.5
v -0.5 2 -0.5
v -0.5 1 -1.5
v 0.5 1 -1.5
v -0.5 3 -1.5
v 0.5 3 -1.5
v -0.5 1 -0.5
v 0.5 1 -0.5
v -0.5 3 -0.5
v 0.5 3 -0.5
v 0.5 1 -1.5
v 1.5 1 -1.5
v 0.5 4 -1.5
v 1.5 4 -1.5
v 0.5 1 -0.5
v 1.5 1 -0.5
v 0.5 4 -0.5
v 1.5 4 -0.5
f 1//1 3//1 4//1 2//1
f 5//2 6//2 8//2 7//2
f 1//3 5//3 7//3 3//3
f 2//4 4//4 8//4 6//4
f 1//5 2//5 6//5 5//5
f 3//6 7//6 8//6 4//6
f 9//1 11//1 12//1 10//1
f 13//2 14//2 16//2 15//2
f 9//3 13//3 15//3 11//3
f 10//4 12//4 16//4 14//4
f 9//5 10//5 14//5 13//5
f 11//6 15//6 16//6 12//6
f 17//1 19//1 20//1 18//1
f 21//2 22//2 24//2 23//2
f 17//3 21//3 23//3 19//3
f 18//4 20//4 24//4 22//4
f 17//5 18//5 22//5 21//5
f 19//6 23//6 24//6 20//6
