# stair_run — generated by tools/make-tiles.js
# 1 unit = 1 voxel, +Y up, cell frame x,z in [-2,2]
o stair_run
vn 0 0 -1
vn 0 0 1
vn -1 0 0
vn 1 0 0
vn 0 -1 0
vn 0 1 0
v -1.5 0 -2
v 1.5 0 -2
v -1.5 1 -2
v 1.5 1 -2
v -1.5 0 -1.5
v 1.5 0 -1.5
v -1.5 1 -1.5
v 1.5 1 -1.5
v -2.5 0 -2
v -1.5 0 -2
v -2.5 4 -2
v -1.5 4 -2
v -2.5 0 -1.5
v -1.5 0 -1.5
v -2.5 4 -1.5
v -1.5 4 -1.5
v 1.5 0 -2
v 2.5 0 -2
v 1.5 4 -2
v 2.5 4 -2
v 1.5 0 -1.5
v 2.5 0 -1.5
v 1.5 4 -1.5
v 2.5 4 -1.5
v -1.5 0 -1.5
v 1.5 0 -1.5
v -1.5 2 -1.5
v 1.5 2 -1.5
v -1.5 0 -0.5
v 1.5 0 -0.5
v -1.5 2 -0.5
v 1.5 2 -0.5
v -2.5 0 -1.5
v -1.5 0 -1.5
v -2.5 5 -1.5
v -1.5 5 -1.5
v -2.5 0 -0.5
v -1.5 0 -0.5
v -2.5 5 -0.5
v -1.5 5 -0.5
v 1.5 0 -1.5
v 2.5 0 -1.5
v 1.5 5 -1.5
v 2.5 5 -1.5
v 1.5 0 -0.5
v 2.5 0 -0.5
v 1.5 5 -0.5
v 2.5 5 -0.5
v -1.5 0 -0.5
v 1.5 0 -0.5
v -1.5 3 -0.5
v 1.5 3 -0.5
v -1.5 0 0.5
v 1.5 0 0.5
v -1.5 3 0.5
v 1.5 3 0.5
v -2.5 0 -0.5
v -1.5 0 -0.5
v -2.5 6 -0.5
v -1.5 6 -0.5
v -2.5 0 0.5
v -1.5 0 0.5
v -2.5 6 0.5
v -1.5 6 0.5
v 1.5 0 -0.5
v 2.5 0 -0.5
v 1.5 6 -0.5
v 2.5 6 -0.5
v 1.5 0 0.5
v 2.5 0 0.5
v 1.5 6 0.5
v 2.5 6 0.5
v -1.5 0 0.5
v 1.5 0 0.5
v -1.5 4 0.5
v 1.5 4 0.5
v -1.5 0 1.5
v 1.5 0 1.5
v -1.5 4 1.5
v 1.5 4 1.5
v -2.5 0 0.5
v -1.5 0 0.5
v -2.5 7 0.5
v -1.5 7 0.5
v -2.5 0 1.5
v -1.5 0 1.5
v -2.5 7 1.5
v -1.5 7 1.5
v 1.5 0 0.5
v 2.5 0 0.5
v 1.5 7 0.5
v 2.5 7 0.5
v 1.5 0 1.5
v 2.5 0 1.5
v 1.5 7 1.5
v 2.5 7 1.5
v -1.5 0 1.5
v 1.5 0 1.5
v -1.5 5 1.5
v 1.5 5 1.5
v -1.5 0 2
v 1.5 0 2
v -1.5 5 2
v 1.5 5 2
v -2.5 0 1.5
v -1.5 0 1.5
v -2.5 8 1.5
v -1.5 8 1.5
v -2.5 0 2
v -1.5 0 2
v -2.5 8 2
v -1.5 8 2
v 1.5 0 1.5
v 2.5 0 1.5
v 1.5 8 1.5
v 2.5 8 1.5
v 1.5 0 2
v 2.5 0 2
v 1.5 8 2
v 2.5 8 2
f 1//1 3//1 4//1 2//1
f 5//2 6//2 8//2 7//2
f 1//3 5//3 7//3 3//3
f 2//4 4//4 8//4 6//4
f 1//5 2//5 6//5 5//5
f 3//6 7//6 8//6 4//6
f 9//1 11//1 12//1 10//1
f 13//2 14//2 16//2 15//2
f 9//3 13//3 15//3 11//3
f 10//4 12//4 16//4 14//4
f 9//5 10//5 14//5 13//5
f 11//6 15//6 16//6 12//6
f 17//1 19//1 20//1 18//1
f 21//2 22//2 24//2 23//2
f 17//3 21//3 23//3 19//3
f 18//4 20//4 24//4 22//4
f 17//5 18//5 22//5 21//5
f 19//6 23//6 24//6 20//6
f 25//1 27//1 28//1 26//1
f 29//2 30//2 32//2 31//2
f 25//3 29//3 31//3 27//3
f 26//4 28//4 32//4 30//4
f 25//5 26//5 30//5 29//5
f 27//6 31//6 32//6 28//6
f 33//1 35//1 36//1 34//1
f 37//2 38//2 40//2 39//2
f 33//3 37//3 39//3 35//3
f 34//4 36//4 40//4 38//4
f 33//5 34//5 38//5 37//5
f 35//6 39//6 40//6 36//6
f 41//1 43//1 44//1 42//1
f 45//2 46//2 48//2 47//2
f 41//3 45//3 47//3 43//3
f 42//4 44//4 48//4 46//4
f 41//5 42//5 46//5 45//5
f 43//6 47//6 48//6 44//6
f 49//1 51//1 52//1 50//1
f 53//2 54//2 56//2 55//2
f 49//3 53//3 55//3 51//3
f 50//4 52//4 56//4 54//4
f 49//5 50//5 54//5 53//5
f 51//6 55//6 56//6 52//6
f 57//1 59//1 60//1 58//1
f 61//2 62//2 64//2 63//2
f 57//3 61//3 63//3 59//3
f 58//4 60//4 64//4 62//4
f 57//5 58//5 62//5 61//5
f 59//6 63//6 64//6 60//6
f 65//1 67//1 68//1 66//1
f 69//2 70//2 72//2 71//2
f 65//3 69//3 71//3 67//3
f 66//4 68//4 72//4 70//4
f 65//5 66//5 70//5 69//5
f 67//6 71//6 72//6 68//6
f 73//1 75//1 76//1 74//1
f 77//2 78//2 80//2 79//2
f 73//3 77//3 79//3 75//3
f 74//4 76//4 80//4 78//4
f 73//5 74//5 78//5 77//5
f 75//6 79//6 80//6 76//6
f 81//1 83//1 84//1 82//1
f 85//2 86//2 88//2 87//2
f 81//3 85//3 87//3 83//3
f 82//4 84//4 88//4 86//4
f 81//5 82//5 86//5 85//5
f 83//6 87//6 88//6 84//6
f 89//1 91//1 92//1 90//1
f 93//2 94//2 96//2 95//2
f 89//3 93//3 95//3 91//3
f 90//4 92//4 96//4 94//4
f 89//5 90//5 94//5 93//5
f 91//6 95//6 96//6 92//6
f 97//1 99//1 100//1 98//1
f 101//2 102//2 104//2 103//2
f 97//3 101//3 103//3 99//3
f 98//4 100//4 104//4 102//4
f 97//5 98//5 102//5 101//5
f 99//6 103//6 104//6 100//6
f 105//1 107//1 108//1 106//1
f 109//2 110//2 112//2 111//2
f 105//3 109//3 111//3 107//3
f 106//4 108//4 112//4 110//4
f 105//5 106//5 110//5 109//5
f 107//6 111//6 112//6 108//6
f 113//1 115//1 116//1 114//1
f 117//2 118//2 120//2 119//2
f 113//3 117//3 119//3 115//3
f 114//4 116//4 120//4 118//4
f 113//5 114//5 118//5 117//5
f 115//6 119//6 120//6 116//6
